<svg width="504" height="408" viewBox="0 0 504 408" fill="none" xmlns="http://www.w3.org/2000/svg">
<path d="M260.416 147.688V149.872H258.256V154H255.664V149.872H247.336L256.408 137.2H258.256V147.688H260.416ZM255.664 147.688V141.904L251.56 147.688H255.664ZM273.225 137.2L266.073 154H263.313L269.409 139.672H262.281V137.2H273.225ZM277.038 140.944C276.222 141.552 275.446 141.952 274.71 142.144L274.374 139.816C274.982 139.64 275.614 139.296 276.27 138.784C276.942 138.272 277.422 137.744 277.71 137.2H279.605V154H277.038V140.944ZM289.272 143.92C290.216 143.92 291.064 144.144 291.816 144.592C292.584 145.024 293.176 145.624 293.592 146.392C294.024 147.16 294.24 148.024 294.24 148.984C294.24 150.024 294.008 150.952 293.544 151.768C293.096 152.568 292.448 153.2 291.6 153.664C290.768 154.112 289.808 154.336 288.72 154.336C287.568 154.336 286.56 154.08 285.696 153.568C284.832 153.04 284.168 152.304 283.704 151.36C283.256 150.416 283.032 149.328 283.032 148.096C283.032 146.416 283.4 144.832 284.136 143.344C284.888 141.856 285.832 140.568 286.968 139.48C288.12 138.376 289.32 137.504 290.568 136.864L292.368 138.424C291.072 139.08 289.832 139.968 288.648 141.088C287.464 142.208 286.608 143.456 286.08 144.832C286.96 144.224 288.024 143.92 289.272 143.92ZM288.743 152.128C289.608 152.128 290.312 151.84 290.856 151.264C291.416 150.672 291.696 149.944 291.696 149.08C291.696 148.232 291.416 147.528 290.856 146.968C290.312 146.408 289.608 146.128 288.743 146.128C287.864 146.128 287.144 146.408 286.584 146.968C286.04 147.528 285.768 148.24 285.768 149.104C285.768 149.984 286.04 150.712 286.584 151.288C287.144 151.848 287.864 152.128 288.743 152.128ZM302.544 137.2H313.008V139.648H305.184V143.992H311.328V146.44H305.184V151.552H313.224V154H302.544V137.2ZM318.566 154.24C317.526 154.24 316.75 153.96 316.238 153.4C315.742 152.84 315.494 152.128 315.494 151.264V136H318.014V150.04C318.014 150.712 318.054 151.2 318.134 151.504C318.214 151.792 318.366 151.984 318.59 152.08C318.814 152.16 319.19 152.2 319.718 152.2L319.406 154.24H318.566ZM324.496 154.24C323.456 154.24 322.68 153.96 322.168 153.4C321.672 152.84 321.424 152.128 321.424 151.264V136H323.944V150.04C323.944 150.712 323.984 151.2 324.064 151.504C324.144 151.792 324.296 151.984 324.52 152.08C324.744 152.16 325.12 152.2 325.648 152.2L325.336 154.24H324.496ZM330.738 154.24C329.234 154.24 327.89 153.92 326.706 153.28L326.97 150.976C327.434 151.312 327.978 151.6 328.602 151.84C329.226 152.064 329.906 152.176 330.642 152.176C331.33 152.176 331.858 152.064 332.226 151.84C332.594 151.616 332.778 151.28 332.778 150.832C332.778 150.336 332.578 149.96 332.178 149.704C331.794 149.432 331.226 149.176 330.474 148.936C329.706 148.68 329.074 148.432 328.578 148.192C328.082 147.936 327.674 147.584 327.354 147.136C327.034 146.688 326.874 146.112 326.874 145.408C326.874 144.4 327.25 143.568 328.002 142.912C328.77 142.24 329.874 141.904 331.314 141.904C332.562 141.904 333.698 142.184 334.722 142.744L334.458 144.952C333.962 144.584 333.466 144.304 332.97 144.112C332.49 143.904 331.954 143.8 331.362 143.8C330.738 143.8 330.25 143.92 329.898 144.16C329.546 144.4 329.37 144.752 329.37 145.216C329.37 145.552 329.458 145.824 329.634 146.032C329.81 146.24 330.066 146.416 330.402 146.56C330.738 146.704 331.266 146.904 331.986 147.16C333.01 147.512 333.818 147.944 334.41 148.456C335.018 148.968 335.322 149.72 335.322 150.712C335.322 151.736 334.946 152.584 334.194 153.256C333.458 153.912 332.306 154.24 330.738 154.24ZM336.233 142.144H338.945L341.105 151.096L343.505 142.456H345.857L348.233 151.096L350.417 142.144H353.129L349.601 154H347.129L344.681 145.672L342.209 154H339.761L336.233 142.144ZM359.938 154.24C358.706 154.24 357.634 153.968 356.722 153.424C355.826 152.864 355.138 152.12 354.658 151.192C354.194 150.248 353.962 149.208 353.962 148.072C353.962 146.936 354.194 145.904 354.658 144.976C355.138 144.032 355.826 143.288 356.722 142.744C357.634 142.184 358.706 141.904 359.938 141.904C361.154 141.904 362.21 142.184 363.106 142.744C364.018 143.288 364.714 144.032 365.194 144.976C365.674 145.904 365.914 146.936 365.914 148.072C365.914 149.208 365.674 150.248 365.194 151.192C364.714 152.12 364.018 152.864 363.106 153.424C362.21 153.968 361.154 154.24 359.938 154.24ZM359.938 152.104C361.026 152.104 361.866 151.744 362.458 151.024C363.05 150.304 363.346 149.32 363.346 148.072C363.346 146.824 363.05 145.84 362.458 145.12C361.866 144.4 361.026 144.04 359.938 144.04C358.85 144.04 358.01 144.4 357.418 145.12C356.826 145.84 356.53 146.824 356.53 148.072C356.53 149.32 356.826 150.304 357.418 151.024C358.01 151.744 358.85 152.104 359.938 152.104ZM368.065 142.144H370.273L370.441 143.8C371.497 142.536 372.601 141.904 373.753 141.904C373.929 141.904 374.113 141.92 374.305 141.952L374.089 144.568C373.833 144.504 373.545 144.472 373.225 144.472C372.681 144.472 372.169 144.6 371.689 144.856C371.209 145.112 370.865 145.408 370.657 145.744V154H368.065V142.144ZM379.783 154.24C378.743 154.24 377.959 153.96 377.431 153.4C376.919 152.824 376.663 152.12 376.663 151.288V144.136H374.767L374.983 142.144H376.663V139.336L379.159 139.096V142.144H382.063V144.136H379.159V150.016C379.159 150.752 379.199 151.264 379.279 151.552C379.375 151.824 379.559 152 379.831 152.08C380.103 152.16 380.615 152.2 381.367 152.2H382.015L381.823 154.24H379.783ZM389.74 141.928C391.244 141.928 392.38 142.416 393.148 143.392C393.916 144.368 394.3 145.704 394.3 147.4V154H391.804V147.64C391.804 146.408 391.588 145.504 391.156 144.928C390.724 144.352 390.052 144.064 389.14 144.064C388.036 144.064 387.14 144.512 386.452 145.408V154H383.932V136H386.452V143.104C386.916 142.72 387.404 142.432 387.916 142.24C388.444 142.032 389.052 141.928 389.74 141.928ZM411.592 149.704H405.28L403.768 154H401.128L407.128 137.2H409.744L415.768 154H413.104L411.592 149.704ZM410.776 147.376L408.448 140.776L406.12 147.376H410.776ZM415.191 142.144H417.831L420.975 151.072L424.095 142.144H426.735L422.223 154H419.751L415.191 142.144ZM433.823 154.24C432.463 154.24 431.295 153.96 430.319 153.4C429.359 152.84 428.631 152.088 428.135 151.144C427.655 150.2 427.415 149.144 427.415 147.976C427.415 146.872 427.639 145.864 428.087 144.952C428.551 144.024 429.215 143.288 430.079 142.744C430.959 142.2 431.999 141.928 433.199 141.928C434.767 141.928 436.015 142.392 436.943 143.32C437.871 144.232 438.335 145.456 438.335 146.992C438.335 147.408 438.287 147.856 438.191 148.336H429.983C430.143 149.664 430.583 150.624 431.303 151.216C432.039 151.808 432.967 152.104 434.087 152.104C435.351 152.104 436.511 151.832 437.567 151.288L437.807 153.328C436.527 153.936 435.199 154.24 433.823 154.24ZM435.767 146.632C435.767 145.88 435.551 145.264 435.119 144.784C434.687 144.304 434.039 144.064 433.175 144.064C431.559 144.064 430.543 144.92 430.127 146.632H435.767ZM440.416 156.712L441.352 154H440.344V151.144H443.176V153.736L441.808 156.712H440.416ZM248.896 166.2H254.608C258.48 166.2 260.416 168.016 260.416 171.648C260.416 173.504 259.912 174.888 258.904 175.8C257.912 176.696 256.496 177.144 254.656 177.144H251.584V183H248.896V166.2ZM254.296 174.888C255.448 174.888 256.312 174.624 256.888 174.096C257.464 173.568 257.752 172.76 257.752 171.672C257.752 170.568 257.472 169.76 256.912 169.248C256.352 168.72 255.472 168.456 254.272 168.456H251.584V174.888H254.296ZM262.268 166.2H264.764V168.84H262.268V166.2ZM262.268 171.144H264.764V183H262.268V171.144ZM271.619 183.24C270.579 183.24 269.795 182.96 269.267 182.4C268.755 181.824 268.499 181.12 268.499 180.288V173.136H266.603L266.819 171.144H268.499V168.336L270.995 168.096V171.144H273.899V173.136H270.995V179.016C270.995 179.752 271.035 180.264 271.115 180.552C271.211 180.824 271.395 181 271.667 181.08C271.939 181.16 272.451 181.2 273.203 181.2H273.851L273.659 183.24H271.619ZM279.776 183.24C278.736 183.24 277.952 182.96 277.424 182.4C276.912 181.824 276.656 181.12 276.656 180.288V173.136H274.76L274.976 171.144H276.656V168.336L279.152 168.096V171.144H282.056V173.136H279.152V179.016C279.152 179.752 279.192 180.264 279.272 180.552C279.368 180.824 279.552 181 279.824 181.08C280.096 181.16 280.608 181.2 281.36 181.2H282.008L281.816 183.24H279.776ZM289.924 170.928C291.012 170.928 291.956 171.208 292.756 171.768C293.572 172.328 294.188 173.08 294.604 174.024C295.036 174.952 295.252 175.968 295.252 177.072C295.252 178.208 295.028 179.248 294.58 180.192C294.132 181.12 293.5 181.864 292.684 182.424C291.884 182.968 290.964 183.24 289.924 183.24C289.204 183.24 288.54 183.12 287.932 182.88C287.324 182.64 286.796 182.296 286.348 181.848L286.204 183H283.924V165H286.42V172.296C286.868 171.864 287.388 171.528 287.98 171.288C288.588 171.048 289.236 170.928 289.924 170.928ZM289.588 181.104C290.532 181.104 291.284 180.728 291.844 179.976C292.42 179.208 292.708 178.24 292.708 177.072C292.708 175.888 292.428 174.928 291.868 174.192C291.308 173.44 290.548 173.064 289.588 173.064C288.596 173.064 287.796 173.416 287.188 174.12C286.596 174.824 286.3 175.808 286.3 177.072C286.3 178.368 286.596 179.368 287.188 180.072C287.78 180.76 288.58 181.104 289.588 181.104ZM307.408 171.144V183H305.128L304.984 181.968C304.216 182.816 303.208 183.24 301.96 183.24C300.392 183.24 299.224 182.776 298.456 181.848C297.688 180.92 297.304 179.576 297.304 177.816V171.144H299.8V177.48C299.8 178.696 300 179.6 300.4 180.192C300.816 180.784 301.48 181.08 302.392 181.08C302.92 181.08 303.4 180.984 303.832 180.792C304.264 180.584 304.624 180.288 304.912 179.904V171.144H307.408ZM310.292 171.144H312.5L312.668 172.8C313.724 171.536 314.828 170.904 315.98 170.904C316.156 170.904 316.34 170.92 316.532 170.952L316.316 173.568C316.06 173.504 315.772 173.472 315.452 173.472C314.908 173.472 314.396 173.6 313.916 173.856C313.436 174.112 313.092 174.408 312.884 174.744V183H310.292V171.144ZM322.661 189.024C320.981 189.024 319.629 188.712 318.605 188.088C317.581 187.48 317.069 186.632 317.069 185.544C317.069 184.36 317.733 183.432 319.061 182.76C318.325 182.36 317.957 181.832 317.957 181.176C317.957 180.424 318.397 179.856 319.277 179.472C318.637 179.072 318.149 178.536 317.813 177.864C317.477 177.176 317.309 176.408 317.309 175.56C317.309 174.696 317.501 173.912 317.885 173.208C318.269 172.504 318.829 171.944 319.565 171.528C320.301 171.112 321.173 170.904 322.181 170.904C323.237 170.904 324.173 171.184 324.989 171.744C325.757 171.328 326.685 171.12 327.773 171.12H328.205L327.965 172.728H327.197C326.813 172.728 326.461 172.768 326.141 172.848C326.733 173.616 327.029 174.52 327.029 175.56C327.029 176.44 326.837 177.24 326.453 177.96C326.069 178.68 325.509 179.248 324.773 179.664C324.037 180.08 323.173 180.288 322.181 180.288C321.685 180.288 321.197 180.224 320.717 180.096C320.429 180.192 320.285 180.368 320.285 180.624C320.285 180.816 320.397 180.976 320.621 181.104C320.861 181.232 321.237 181.328 321.749 181.392L324.437 181.8C325.749 181.992 326.749 182.368 327.437 182.928C328.125 183.488 328.469 184.256 328.469 185.232C328.469 186.432 327.949 187.36 326.909 188.016C325.885 188.688 324.469 189.024 322.661 189.024ZM322.181 178.368C322.981 178.368 323.597 178.12 324.029 177.624C324.477 177.112 324.701 176.432 324.701 175.584C324.701 174.752 324.477 174.088 324.029 173.592C323.597 173.08 322.981 172.824 322.181 172.824C321.365 172.824 320.733 173.08 320.285 173.592C319.853 174.088 319.637 174.752 319.637 175.584C319.637 176.432 319.853 177.112 320.285 177.624C320.733 178.12 321.365 178.368 322.181 178.368ZM322.805 186.96C324.997 186.96 326.093 186.424 326.093 185.352C326.093 184.92 325.917 184.584 325.565 184.344C325.213 184.12 324.653 183.936 323.885 183.792L320.837 183.312C319.813 183.744 319.301 184.344 319.301 185.112C319.301 185.736 319.605 186.2 320.213 186.504C320.837 186.808 321.701 186.96 322.805 186.96ZM335.669 170.928C337.173 170.928 338.309 171.416 339.077 172.392C339.845 173.368 340.229 174.704 340.229 176.4V183H337.733V176.64C337.733 175.408 337.517 174.504 337.085 173.928C336.653 173.352 335.981 173.064 335.069 173.064C333.965 173.064 333.069 173.512 332.381 174.408V183H329.861V165H332.381V172.104C332.845 171.72 333.333 171.432 333.845 171.24C334.373 171.032 334.981 170.928 335.669 170.928ZM342.963 185.712L343.899 183H342.891V180.144H345.723V182.736L344.355 185.712H342.963ZM354.177 166.2H359.889C363.761 166.2 365.697 168.016 365.697 171.648C365.697 173.504 365.193 174.888 364.185 175.8C363.193 176.696 361.777 177.144 359.937 177.144H356.865V183H354.177V166.2ZM359.577 174.888C360.729 174.888 361.593 174.624 362.169 174.096C362.745 173.568 363.033 172.76 363.033 171.672C363.033 170.568 362.753 169.76 362.193 169.248C361.633 168.72 360.753 168.456 359.553 168.456H356.865V174.888H359.577ZM375.873 178.704H369.561L368.049 183H365.409L371.409 166.2H374.025L380.049 183H377.385L375.873 178.704ZM375.057 176.376L372.729 169.776L370.401 176.376H375.057ZM381.588 185.712L382.524 183H381.516V180.144H384.348V182.736L382.98 185.712H381.588ZM394.506 169.944C393.69 170.552 392.914 170.952 392.178 171.144L391.842 168.816C392.45 168.64 393.082 168.296 393.738 167.784C394.41 167.272 394.89 166.744 395.178 166.2H397.074V183H394.506V169.944ZM405.396 172.416C406.532 172.416 407.516 172.64 408.348 173.088C409.196 173.536 409.844 174.168 410.292 174.984C410.74 175.784 410.964 176.72 410.964 177.792C410.964 178.912 410.708 179.888 410.196 180.72C409.684 181.552 408.972 182.2 408.06 182.664C407.164 183.112 406.148 183.336 405.012 183.336C404.132 183.336 403.292 183.224 402.492 183C401.692 182.76 400.98 182.432 400.356 182.016L400.98 179.616C401.652 180.016 402.292 180.32 402.9 180.528C403.524 180.736 404.196 180.84 404.916 180.84C405.924 180.84 406.732 180.568 407.34 180.024C407.948 179.464 408.252 178.72 408.252 177.792C408.252 176.752 407.916 175.952 407.244 175.392C406.588 174.832 405.676 174.552 404.508 174.552C403.516 174.552 402.42 174.696 401.22 174.984L402.276 166.2H410.196L410.052 168.696H404.34L403.884 172.512C404.316 172.448 404.82 172.416 405.396 172.416ZM417.854 176.088C418.718 174.76 419.334 173.712 419.702 172.944C420.07 172.176 420.254 171.464 420.254 170.808C420.254 170.04 420.03 169.432 419.582 168.984C419.15 168.536 418.558 168.312 417.806 168.312C416.366 168.312 415.014 168.96 413.75 170.256L413.414 167.568C414.838 166.416 416.438 165.84 418.214 165.84C419.686 165.84 420.822 166.272 421.622 167.136C422.438 168 422.846 169.096 422.846 170.424C422.846 171.432 422.638 172.424 422.222 173.4C421.822 174.36 421.126 175.592 420.134 177.096L417.83 180.576H423.47V182.976H413.318L417.854 176.088ZM428.327 169.944C427.511 170.552 426.735 170.952 425.999 171.144L425.663 168.816C426.271 168.64 426.903 168.296 427.559 167.784C428.231 167.272 428.711 166.744 428.999 166.2H430.895V183H428.327V169.944ZM441.473 174.168C442.449 174.488 443.201 175 443.729 175.704C444.257 176.408 444.521 177.28 444.521 178.32C444.521 179.36 444.265 180.256 443.753 181.008C443.257 181.76 442.561 182.336 441.665 182.736C440.785 183.136 439.777 183.336 438.641 183.336C436.961 183.336 435.369 182.936 433.865 182.136L434.513 179.832C435.201 180.216 435.873 180.512 436.529 180.72C437.201 180.928 437.913 181.032 438.665 181.032C439.641 181.032 440.409 180.8 440.969 180.336C441.529 179.856 441.809 179.2 441.809 178.368C441.809 177.456 441.505 176.752 440.897 176.256C440.305 175.76 439.409 175.512 438.209 175.512H436.889V173.112H438.209C439.169 173.112 439.921 172.888 440.465 172.44C441.009 171.992 441.281 171.368 441.281 170.568C441.281 169.784 441.057 169.192 440.609 168.792C440.161 168.376 439.521 168.168 438.689 168.168C438.049 168.168 437.433 168.28 436.841 168.504C436.265 168.728 435.657 169.04 435.017 169.44L434.585 166.944C435.897 166.224 437.369 165.864 439.001 165.864C440.553 165.864 441.761 166.264 442.625 167.064C443.505 167.864 443.945 168.92 443.945 170.232C443.945 171.144 443.729 171.944 443.297 172.632C442.865 173.304 442.257 173.816 441.473 174.168Z" fill="#F9F7F8"/>
<g filter="url(#filter0_d)">
<line x1="12.4657" y1="2.00269" x2="231.466" y2="382.003" stroke="#DFD9DD" stroke-width="8" stroke-linejoin="round"/>
</g>
<g filter="url(#filter1_d)">
<line x1="59.5723" y1="292.023" x2="496.572" y2="245.023" stroke="#DFD9DD" stroke-width="8"/>
</g>
<path fill-rule="evenodd" clip-rule="evenodd" d="M222.182 79.9404C218.238 75.8547 212.911 73.5238 207.334 73.4434H207.123C201.545 73.5226 196.218 75.8528 192.273 79.9382C188.329 84.0236 186.079 89.5418 186.003 95.3189C185.934 99.4206 187.048 103.451 189.203 106.897L205.824 141.805H208.638L225.255 106.897C227.414 103.451 228.528 99.4206 228.454 95.3189C228.377 89.5423 226.126 84.0249 222.182 79.9404V79.9404ZM206.833 78.9123L207.266 78.9669L207.656 78.9123C211.804 79.0994 215.725 80.9252 218.613 84.0143C221.501 87.1035 223.137 91.2213 223.185 95.5213C223.225 98.5731 222.365 101.565 220.719 104.097L220.613 104.282L220.524 104.474L207.229 132.393L193.939 104.501L193.849 104.288L193.743 104.102C192.098 101.57 191.237 98.5786 191.278 95.5268C191.323 91.2218 192.961 87.0988 195.854 84.0076C198.747 80.9164 202.674 79.0927 206.827 78.9123H206.833ZM210.064 90.7743C209.487 90.375 208.841 90.0972 208.16 89.9568C207.48 89.8164 206.78 89.8162 206.1 89.9561C205.419 90.096 204.772 90.3733 204.196 90.7722C203.619 91.1711 203.123 91.6838 202.738 92.281C202.352 92.8781 202.084 93.5481 201.949 94.2526C201.813 94.9572 201.813 95.6824 201.948 96.3871C202.083 97.0917 202.351 97.7618 202.736 98.3593C203.121 98.9567 203.616 99.4698 204.193 99.8691C205.357 100.676 206.783 100.97 208.157 100.687C209.531 100.405 210.74 99.5684 211.519 98.3624C212.297 97.1563 212.581 95.6793 212.309 94.2563C212.036 92.8333 211.228 91.5807 210.064 90.7743V90.7743ZM201.262 86.2242C202.414 85.3854 203.717 84.7937 205.093 84.484C206.469 84.1743 207.891 84.1528 209.275 84.4207C210.659 84.6887 211.978 85.2408 213.153 86.0444C214.328 86.848 215.336 87.8869 216.118 89.1001C216.9 90.3133 217.44 91.6762 217.705 93.1086C217.971 94.541 217.957 96.0139 217.665 97.4408C217.373 98.8677 216.809 100.22 216.005 101.417C215.201 102.615 214.174 103.633 212.984 104.414C210.655 105.941 207.842 106.464 205.145 105.872C202.448 105.28 200.082 103.619 198.552 101.245C197.021 98.8698 196.448 95.9694 196.955 93.1629C197.461 90.3563 199.007 87.8661 201.262 86.2242V86.2242Z" fill="#FFDE98"/>
<defs>
<filter id="filter0_d" x="0" y="0.00537109" width="234.931" height="407.995" filterUnits="userSpaceOnUse" color-interpolation-filters="sRGB">
<feFlood flood-opacity="0" result="BackgroundImageFix"/>
<feColorMatrix in="SourceAlpha" type="matrix" values="0 0 0 0 0 0 0 0 0 0 0 0 0 0 0 0 0 0 127 0"/>
<feOffset dx="-5" dy="20"/>
<feGaussianBlur stdDeviation="2"/>
<feColorMatrix type="matrix" values="0 0 0 0 0 0 0 0 0 0 0 0 0 0 0 0 0 0 0.25 0"/>
<feBlend mode="normal" in2="BackgroundImageFix" result="effect1_dropShadow"/>
<feBlend mode="normal" in="SourceGraphic" in2="effect1_dropShadow" result="shape"/>
</filter>
<filter id="filter1_d" x="58.1445" y="241.046" width="445.855" height="68.9541" filterUnits="userSpaceOnUse" color-interpolation-filters="sRGB">
<feFlood flood-opacity="0" result="BackgroundImageFix"/>
<feColorMatrix in="SourceAlpha" type="matrix" values="0 0 0 0 0 0 0 0 0 0 0 0 0 0 0 0 0 0 127 0"/>
<feOffset dx="3" dy="10"/>
<feGaussianBlur stdDeviation="2"/>
<feColorMatrix type="matrix" values="0 0 0 0 0 0 0 0 0 0 0 0 0 0 0 0 0 0 0.25 0"/>
<feBlend mode="normal" in2="BackgroundImageFix" result="effect1_dropShadow"/>
<feBlend mode="normal" in="SourceGraphic" in2="effect1_dropShadow" result="shape"/>
</filter>
</defs>
</svg>
